<svg width="50" height="50" viewBox="0 0 50 50" fill="none" xmlns="http://www.w3.org/2000/svg">
<circle cx="25" cy="25" r="25" fill="black"/>
<path d="M16.2929 32.2929C15.9024 32.6834 15.9024 33.3166 16.2929 33.7071C16.6834 34.0976 17.3166 34.0976 17.7071 33.7071L16.2929 32.2929ZM34 17C34 16.4477 33.5523 16 33 16L24 16C23.4477 16 23 16.4477 23 17C23 17.5523 23.4477 18 24 18L32 18L32 26C32 26.5523 32.4477 27 33 27C33.5523 27 34 26.5523 34 26L34 17ZM17.7071 33.7071L33.7071 17.7071L32.2929 16.2929L16.2929 32.2929L17.7071 33.7071Z" fill="white"/>
</svg>
